P3
3 2
255
0 255 0 0 255 0 127 127 127 
127 127 127 127 127 127 0 255 0

